Coordinates
version=1
nRows=4
nColumns=107
inDegrees=yes

Units are S.I. units (second, meters, Newtons, ...)
If the header above contains a line with 'inDegrees', this indicates whether rotational values are in degrees (yes) or radians (no).

endheader
time	sternoclavicular_r2	sternoclavicular_r3	unrotscap_r3	unrotscap_r2	acromioclavicular_r2	acromioclavicular_r3	acromioclavicular_r1	unrothum_r1	unrothum_r3	unrothum_r2	elv_angle	shoulder_elv	shoulder1_r2	shoulder_rot	elbow_flexion	pro_sup	deviation	flexion	proximal_distal_r1	proximal_distal_r3	cmc_flexion	cmc_abduction	mp_flexion	ip_flexion	mcp2_flexion	mcp2_abduction	pm2_flexion	md2_flexion	mcp3_flexion	mcp3_abduction	pm3_flexion	md3_flexion	mcp4_flexion	mcp4_abduction	pm4_flexion	md4_flexion	mcp5_flexion	mcp5_abduction	pm5_flexion	md5_flexion	bicpt_tx	bicpt_ty	bicpt_tz	bicpt2_tx	bicpt2_ty	bicpt2_tz	ptpt_tx	ptpt_ty	ptpt_tz	FCUpt_tx	FCUpt_ty	FCUpt_tz	EDCpt_tx	EDCpt_ty	EDCpt_tz	APLpt_tx	APLpt_ty	APLpt_tz	FPLpt_tx	FPLpt_ty	FPLpt_tz	FPLpt2_tx	FPLpt2_ty	FPLpt2_tz	PEC1pt2_tx	PEC1pt2_ty	PEC1pt2_tz	PEC1pt3_tx	PEC1pt3_ty	PEC1pt3_tz	PEC2pt2_tx	PEC2pt2_ty	PEC2pt2_tz	PEC2pt3_tx	PEC2pt3_ty	PEC2pt3_tz	PEC3pt2_tx	PEC3pt2_ty	PEC3pt2_tz	PEC3pt3_tx	PEC3pt3_ty	PEC3pt3_tz	DELT2pt2a_tx	DELT2pt2a_ty	DELT2pt2a_tz	DELT2pt2_tx	DELT2pt2_ty	DELT2pt2_tz	LAT1pt2_tx	LAT1pt2_ty	LAT1pt2_tz	LAT1pt3_tx	LAT1pt3_ty	LAT1pt3_tz	LAT2pt2_tx	LAT2pt2_ty	LAT2pt2_tz	LAT2pt3_tx	LAT2pt3_ty	LAT2pt3_tz	LAT3pt2_tx	LAT3pt2_ty	LAT3pt2_tz	LAT3pt3_tx	LAT3pt3_ty	LAT3pt3_tz
      0.63333333	     -0.31551073	      0.13363545	     -0.13363545	      0.31551073	     -0.06388450	      0.51629209	      0.23206974	     -0.23206974	     -0.51629209	      0.06388450	    100.57810522	     74.69996883	     -1.75541909	    -35.11809762	     32.22400691	     87.20971281	      0.37249884	     -0.45358757	      0.39196159	     -0.22679378	     42.68939972	    -21.69014560	     15.31054160	      8.78404769	    101.20314627	     11.05411739	     73.90305276	     86.33477223	    101.66718424	     -3.35465113	     75.38117200	     60.36140067	     95.89241964	    -13.94677448	     88.34365196	     45.09232985	    103.60518669	    -14.25494080	     93.22756615	      5.42664513	      0.00096587	     -0.03129336	     -0.00489490	      0.01411319	     -0.01895381	     -0.00086785	      0.00110619	     -0.06906668	     -0.00707521	      0.01287719	     -0.18219656	      0.00011767	     -0.01046514	      0.00364462	     -0.00079646	      0.00029178	      0.00011671	      0.00058357	      0.00037348	      0.00112045	      0.00063026	     -0.00000597	     -0.00005480	     -0.00006576	      0.00244850	      0.00859050	      0.00597600	     -0.00800950	      0.01933901	     -0.01834301	      0.00244850	      0.00859050	      0.00597600	      0.00053950	      0.01792801	     -0.00942050	      0.00389201	      0.00477707	      0.01582930	      0.00000000	      0.00746063	      0.00000000	     -0.00701350	     -0.03241151	     -0.00614978	      0.02097170	     -0.00093528	     -0.01014202	     -0.00087150	      0.01460801	     -0.00597600	      0.00240700	      0.02108201	     -0.01743001	     -0.00585150	      0.01265751	     -0.00535350	     -0.01220101	      0.02672601	     -0.02992151	     -0.02290801	      0.01415151	     -0.00717950	     -0.01518901	      0.03087601	     -0.03739152
      0.66666667	     -0.31584458	      0.13377686	     -0.13377686	      0.31584458	     -0.06395210	      0.51683840	      0.23231530	     -0.23231530	     -0.51683840	      0.06395210	    100.41328344	     74.77901163	     -1.75254241	    -34.62959911	     32.38968123	     87.15662874	      0.37722771	     -0.42767168	      0.39547746	     -0.21383584	     42.69403189	    -21.74777822	     14.94155038	      9.24990813	    101.19402879	     11.09574943	     73.41477149	     87.03946561	    101.57222977	     -3.19850144	     75.18264153	     60.42046176	     95.86743895	    -13.95257603	     88.05760093	     44.50019437	    103.71486961	    -14.25291811	     91.82532597	      5.51950331	      0.00097135	     -0.03131235	     -0.00489796	      0.01411882	     -0.01899882	     -0.00087703	      0.00111011	     -0.06906414	     -0.00707093	      0.01287108	     -0.18219838	      0.00011616	     -0.01045877	      0.00364169	     -0.00079472	      0.00028440	      0.00011376	      0.00056880	      0.00036403	      0.00109209	      0.00061430	     -0.00000596	     -0.00005470	     -0.00006563	      0.00245109	      0.00859959	      0.00598233	     -0.00801798	      0.01935947	     -0.01836242	      0.00245109	      0.00859959	      0.00598233	      0.00054007	      0.01794698	     -0.00943047	      0.00389505	      0.00478212	      0.01583689	      0.00000000	      0.00747653	      0.00000000	     -0.00702092	     -0.03244581	     -0.00616299	      0.02078703	     -0.00091799	     -0.00987730	     -0.00087242	      0.01462346	     -0.00598233	      0.00240955	      0.02110432	     -0.01744845	     -0.00585769	      0.01267090	     -0.00535917	     -0.01221392	      0.02675429	     -0.02995317	     -0.02293225	      0.01416648	     -0.00718710	     -0.01520508	      0.03090868	     -0.03743108
      0.70000000	     -0.31624555	      0.13394669	     -0.13394669	      0.31624555	     -0.06403329	      0.51749453	      0.23261023	     -0.23261023	     -0.51749453	      0.06403329	    100.41483355	     74.87394451	     -1.75256946	    -34.36655176	     32.21844652	     87.05191628	      0.38186975	     -0.42384377	      0.39889275	     -0.21192189	     42.68287709	    -21.79709932	     15.30864930	      9.39046089	    101.39011556	     11.06365843	     73.66115793	     85.47584061	    101.96391840	     -3.30511705	     74.98525264	     60.46395543	     96.31164041	    -13.96325384	     87.31918889	     45.25622791	    104.01178142	    -14.25222688	     91.55327518	      5.47704558	      0.00096569	     -0.03129273	     -0.00489480	      0.01412996	     -0.01895230	     -0.00089516	      0.00111785	     -0.06905914	     -0.00706250	      0.01285900	     -0.18220196	      0.00011317	     -0.01044621	      0.00363590	     -0.00079128	      0.00028321	      0.00011328	      0.00056642	      0.00036251	      0.00108752	      0.00061173	     -0.00000599	     -0.00005495	     -0.00006593	      0.00245420	      0.00861051	      0.00598992	     -0.00802816	      0.01938405	     -0.01838573	      0.00245420	      0.00861051	      0.00598992	      0.00054076	      0.01796976	     -0.00944244	      0.00389869	      0.00478820	      0.01584598	      0.00000000	      0.00749565	      0.00000000	     -0.00702984	     -0.03248700	     -0.00617887	      0.02068630	     -0.00090870	     -0.00973576	     -0.00087353	      0.01464203	     -0.00598992	      0.00241261	      0.02113111	     -0.01747060	     -0.00586513	      0.01268698	     -0.00536597	     -0.01222942	      0.02678826	     -0.02999120	     -0.02296136	      0.01418446	     -0.00719622	     -0.01522438	      0.03094792	     -0.03747860
      0.73333333	     -0.31568612	      0.13370974	     -0.13370974	      0.31568612	     -0.06392002	      0.51657909	      0.23219875	     -0.23219875	     -0.51657909	      0.06392002	    100.42374393	     74.74149397	     -1.75272498	    -34.71000624	     32.39293380	     87.10156850	      0.37766112	     -0.42809863	      0.39579780	     -0.21404932	     42.64954127	    -21.76406006	     14.76791621	      9.28260899	    100.81626651	     10.98721586	     74.07185306	     85.85860928	    101.45023352	     -3.33131710	     75.52361198	     60.40465801	     95.73530977	    -13.94538881	     88.39619313	     45.78924274	    103.30581242	    -14.24570682	     93.80094351	      5.41364372	      0.00097146	     -0.03131273	     -0.00489802	      0.01412465	     -0.01899970	     -0.00088655	      0.00111418	     -0.06906151	     -0.00706650	      0.01286473	     -0.18220026	      0.00011459	     -0.01045216	      0.00363865	     -0.00079292	      0.00028453	      0.00011381	      0.00056906	      0.00036420	      0.00109259	      0.00061458	     -0.00000606	     -0.00005569	     -0.00006683	      0.00244986	      0.00859528	      0.00597932	     -0.00801396	      0.01934976	     -0.01835320	      0.00244986	      0.00859528	      0.00597932	      0.00053980	      0.01793797	     -0.00942574	      0.00389361	      0.00477973	      0.01583329	      0.00000000	      0.00746898	      0.00000000	     -0.00701740	     -0.03242953	     -0.00615672	      0.02081759	     -0.00092084	     -0.00992075	     -0.00087198	      0.01461613	     -0.00597932	      0.00240834	      0.02109373	     -0.01743970	     -0.00585476	      0.01266454	     -0.00535648	     -0.01220779	      0.02674087	     -0.02993815	     -0.02292074	      0.01415937	     -0.00718349	     -0.01519745	      0.03089318	     -0.03741230
